# AST/ASF file generated using VICON BodyLanguage
# -----------------------------------------------
:version 1.10
:name VICON
:units
  mass 1.0
  length 0.45
  angle deg
:documentation
   .ast/.asf automatically generated from VICON data using
   VICON BodyBuilder and BodyLanguage model FoxedUp or BRILLIANT.MOD
:root
   order TX TY TZ RX RY RZ
   axis XYZ
   position 0 0 0  
   orientation 0 0 0 
:bonedata
  begin
     id 1 
     name lhipjoint
     direction 0.692814 -0.645514 0.321437 
     length 2.38754 
     axis 0 0 0  XYZ
  end
  begin
     id 2 
     name lfemur
     direction 0.34202 -0.939693 0  
     length 6.41921  
     axis 0 0 20  XYZ
    dof rx ry rz
    limits (-160.0 20.0)
           (-70.0 70.0)
           (-60.0 70.0)
  end
  begin
     id 3 
     name ltibia
     direction 0.34202 -0.939693 0   
     length 6.98247   
     axis 0 0 20   XYZ
    dof rx
    limits (-10.0 170.0)
  end
  begin
     id 4 
     name lfoot
     direction 0.0947186 -0.260237 0.960888   
     length 1.83034   
     axis -90 7.62852e-016 20   XYZ
    dof rx rz
    limits (-45.0 90.0)
           (-70.0 20.0)
  end
  begin
     id 5 
     name ltoes
     direction 1.53538e-011 -4.21952e-011 1   
     length 0.920499   
     axis -90 7.62852e-016 20   XYZ
    dof rx
    limits (-90.0 20.0)
  end
  begin
     id 6 
     name rhipjoint
     direction -0.631686 -0.693949 0.345555   
     length 2.2209  
     axis 0 0 0  XYZ 
  end
  begin
     id 7 
     name rfemur
     direction -0.34202 -0.939693 0   
     length 6.49542   
     axis 0 0 -20   XYZ
    dof rx ry rz
    limits (-160.0 20.0)
           (-70.0 70.0)
           (-70.0 60.0)
  end
  begin
     id 8 
     name rtibia
     direction -0.34202 -0.939693 0   
     length 7.21712   
     axis 0 0 -20   XYZ
    dof rx
    limits (-10.0 170.0)
 end
 begin
     id 9 
     name rfoot
     direction -0.0825378 -0.226771 0.970444   
     length 1.89724  
     axis -90 -7.62852e-016 -20   XYZ
    dof rx rz
    limits (-45.0 90.0)
           (-20.0 70.0)
  end
  begin
     id 10 
     name rtoes
     direction -1.53515e-011 -4.22016e-011 1   
     length 0.955868   
     axis -90 -7.62852e-016 -20   XYZ
    dof rx
    limits (-90.0 20.0)
  end
  begin
     id 11 
     name lowerback
     direction -0.0104711 0.984802 -0.173368   
     length 1.84931   
     axis 0 0 0   XYZ
    dof rx ry rz
    limits (-20.0 45.0)
           (-30.0 30.0)
           (-30.0 30.0)
  end
  begin
     id 12 
     name upperback
     direction -0.00286433 0.999996 -0.000382853   
     length 1.85768   
     axis 0 0 0   XYZ
    dof rx ry rz
    limits (-20.0 45.0)
           (-30.0 30.0)
           (-30.0 30.0)
  end
  begin
     id 13 
     name thorax
     direction 0.00167534 0.996793 0.0800069   
     length 1.92   
     axis 0 0 0   XYZ
    dof rx ry rz
    limits (-20.0 45.0)
           (-30.0 30.0)
           (-30.0 30.0)
  end
  begin
     id 14 
     name lowerneck
     direction -0.0672491 0.995415 0.068018   
     length 1.58923   
     axis 0 0 0   XYZ
    dof rx ry rz
    limits (-20.0 45.0)
           (-30.0 30.0)
           (-30.0 30.0)
  end
  begin
     id 15 
     name upperneck
     direction 0.0958019 0.982476 -0.159884   
     length 1.60189   
     axis 0 0 0   XYZ
    dof rx ry rz
    limits (-20.0 45.0)
           (-30.0 30.0)
           (-30.0 30.0)
  end
  begin
     id 16
     name head
     direction 0.032989 0.997338 -0.0650226  
     length 1.61681  
     axis 0 0 0   XYZ
    dof rx ry rz
    limits (-20.0 45.0)
           (-30.0 30.0)
           (-30.0 30.0)
  end
  begin
     id 17 
     name lclavicle
     direction 0.954279 0.298875 -0.00496069  
     length 2.99449  
     axis 0 0 0   XYZ
    dof ry rz
    limits (-20.0 10.0)
           (0.0 20.0)
  end
  begin
     id 18 
     name lhumerus
     direction 1 -4.48985e-011 -4.2057e-027   
     length 4.79185   
     axis 180 -30 -90   XYZ
    dof rx ry rz
    limits (-60.0 90.0)
           (-90.0 90.0)
           (-90.0 90.0)
  end
  begin
     id 19
     name lradius
     direction 1 -4.48945e-011 1.15441e-028   
     length 2.65553   
     axis 180 -30 -90   XYZ
    dof rx
    limits (-10.0 170.0)
  end
  begin
     id 20
     name lwrist
     direction 1 -4.4899e-011 4.8894e-028   
     length 1.32777   
     axis -2.56392e-016 90 90   XYZ
    dof ry
    limits (-180.0 0.0)
 end
  begin
     id 21 
     name lhand
     direction 1 -4.48908e-011 9.7788e-028   
     length 0.743904   
     axis -6.23971e-016 90 90   XYZ
    dof rx rz
    limits (-90.0 90.0)
           (-45.0 45.0)
  end
  begin
     id 22 
     name lfingers
     direction 1 -4.49068e-011 1.95576e-027   
     length 0.599754   
     axis -1.24794e-015 90 90   XYZ
    dof rx
    limits (0.0 90.0)
  end
  begin
     id 23
     name lthumb
     direction 0.707107 -6.34883e-011 0.707107   
     length 0.861131   
     axis -90 45 2.85299e-015   XYZ
    dof rx rz
    limits (-45.0 45.0)
           (-45.0 45.0)
  end
  begin
     id 24 
     name rclavicle
     direction -0.957921 0.286916 0.00811568   
     length 3.06817  
     axis 0 0 0   XYZ 
    dof ry rz
    limits (-10.0 20.0)
           (-20.0 0.0)
  end
  begin
     id 25 
     name rhumerus
     direction -1 -4.48971e-011 -3.07942e-027  
     length 4.77254   
     axis 180 30 90   XYZ
    dof rx ry rz
    limits (-90.0 60.0)
           (-90.0 90.0)
           (-90.0 90.0)
  end
  begin
     id 26 
     name rradius
     direction -1 -4.48957e-011 -9.6815e-028   
     length 2.75995   
     axis 180 30 90   XYZ
    dof rx
    limits (-10.0 170.0)
  end
  begin
     id 27 
     name rwrist
     direction -1 -4.48979e-011 4.8894e-028   
     length 1.37997   
     axis -2.56392e-016 -90 -90   XYZ
    dof ry
    limits (-180.0 0.0)
  end
  begin
     id 28
     name rhand
     direction -1 -4.48906e-011 9.7788e-028   
     length 0.701619   
     axis -6.23971e-016 -90 -90   XYZ
    dof rx rz
    limits (-90.0 90.0)
           (-45.0 45.0)
  end
  begin
     id 29
     name rfingers
     direction -1 -4.49018e-011 1.95576e-027   
     length 0.565663   
     axis -1.24794e-015 -90 -90   XYZ
    dof rx
    limits (0.0 90.0)
  end
  begin
     id 30
     name rthumb
     direction -0.707107 -6.34881e-011 0.707107   
     length 0.812183   
     axis -90 -45 -2.85299e-015   XYZ
    dof rx rz
    limits (-45.0 45.0)
           (-45.0 45.0)
  end
:hierarchy
  begin
    root lhipjoint rhipjoint lowerback
    lhipjoint lfemur
    lfemur ltibia
    ltibia lfoot
    lfoot ltoes
    rhipjoint rfemur
    rfemur rtibia
    rtibia rfoot
    rfoot rtoes
    lowerback upperback
    upperback thorax
    thorax lowerneck lclavicle rclavicle
    lowerneck upperneck
    upperneck head
    lclavicle lhumerus
    lhumerus lradius
    lradius lwrist
    lwrist lhand lthumb
    lhand lfingers
    rclavicle rhumerus
    rhumerus rradius
    rradius rwrist
    rwrist rhand rthumb
    rhand rfingers
  end

#!OML:ASF F:\VICON\USERDATA\INSTALL\rory3\rory3.ASF
:FULLY-SPECIFIED
:DEGREES
445
root 0.136914 14.6052 -1.46526 -0.453149 5.87955 -3.36685
lowerback 22.6443 1.2387 4.84493
upperback 10.1685 3.0141 9.23563
thorax -1.71823 1.44505 6.56262
lowerneck 3.62032 -7.03569 -17.0762
upperneck 6.30827 -9.54502 -1.66084
head 2.25168 -5.11871 2.24351
rclavicle -3.65764e-014 -3.81667e-014
rhumerus -24.7445 -63.7164 -43.8312
rradius 70.2389
rwrist -59.5177
rhand -35.4778 2.40813
rfingers 7.12502
rthumb -8.60589 -27.3965
lclavicle -3.65764e-014 -3.81667e-014
lhumerus -22.4203 9.52671 -14.4798
lradius 69.6177
lwrist 39.3515
lhand -3.86086 21.3551
lfingers 7.12502
lthumb 21.8876 50.1371
rfemur -28.1493 -3.43907 19.5234
rtibia 57.986
rfoot -24.1136 -5.84692
rtoes -18.0687
lfemur -32.8409 -6.78712 -11.0595
ltibia 60.336
lfoot -17.8031 -6.75668
ltoes -17.4424
446
root 0.114963 14.5352 -1.49033 -0.643314 5.9778 -3.3053
lowerback 22.8733 1.34339 4.48142
upperback 10.4434 3.05619 8.89618
thorax -1.53696 1.46218 6.38378
lowerneck 3.49249 -6.55753 -16.6958
upperneck 5.86409 -8.91141 -1.68106
head 2.04437 -4.77025 2.19913
rclavicle -3.33958e-014 1.59028e-015
rhumerus -23.4403 -60.56 -45.9293
rradius 64.5522
rwrist -56.3062
rhand -37.5014 1.87605
rfingers 7.12502
rthumb -10.5583 -27.8387
lclavicle -3.33958e-014 1.59028e-015
lhumerus -21.2765 15.0272 -15.2939
lradius 69.3528
lwrist 39.396
lhand -6.05533 20.958
lfingers 7.12502
lthumb 19.7792 49.9717
rfemur -28.7828 -3.21456 19.542
rtibia 59.346
rfoot -24.4598 -6.19411
rtoes -18.1019
lfemur -33.2874 -6.10548 -11.1261
ltibia 61.338
lfoot -18.2549 -7.26812
ltoes -16.8836
447
root 0.0917687 14.4619 -1.51483 -0.834043 6.08049 -3.2419
lowerback 23.1017 1.52432 4.19904
upperback 10.6735 3.2176 8.56043
thorax -1.4097 1.54121 6.13275
lowerneck 4.0185 -6.16476 -16.5032
upperneck 4.89454 -8.5582 -1.48448
head 1.59346 -4.52683 2.28324
rclavicle 3.65764e-014 9.22361e-014
rhumerus -22.5417 -57.3102 -47.539
rradius 58.9845
rwrist -53.8684
rhand -37.7518 1.04159
rfingers 7.12502
rthumb -10.7999 -28.6607
lclavicle 3.65764e-014 9.22361e-014
lhumerus -19.7948 20.3643 -15.4955
lradius 69.3094
lwrist 40.0083
lhand -8.61197 19.8892
lfingers 7.12502
lthumb 17.3199 49.1375
rfemur -29.388 -2.93237 19.5736
rtibia 60.6661
rfoot -24.8357 -6.60264
rtoes -18.3338
lfemur -33.7082 -5.45539 -11.179
ltibia 62.2616
lfoot -18.6798 -7.79988
ltoes -16.4776
448
root 0.0675958 14.3883 -1.53894 -0.98708 6.17929 -3.01962
lowerback 23.2819 1.83128 3.89194
upperback 10.9124 3.52321 8.0479
thorax -1.25148 1.69617 5.66525
lowerneck 4.24989 -5.90146 -15.8807
upperneck 4.19443 -8.28928 -1.18354
head 1.27928 -4.33954 2.3066
rclavicle 1.90833e-014 3.81667e-014
rhumerus -21.9528 -53.6895 -49.2542
rradius 53.8221
rwrist -52.4166
rhand -38.2982 1.14064
rfingers 7.12502
rthumb -11.3269 -28.5335
lclavicle 1.90833e-014 3.81667e-014
lhumerus -17.5522 25.7283 -15.1175
lradius 69.3801
lwrist 41.2027
lhand -11.0468 19.0255
lfingers 7.12502
lthumb 14.9754 48.464
rfemur -29.9742 -2.60122 19.4361
rtibia 61.9382
rfoot -25.2736 -7.05703
rtoes -18.8909
lfemur -34.1046 -4.82329 -11.4075
ltibia 63.103
lfoot -19.0611 -8.27272
ltoes -15.6484
449
root 0.0432322 14.3187 -1.56325 -1.22476 6.3128 -2.87637
lowerback 23.5692 2.1376 3.73125
upperback 11.139 3.86545 7.49429
thorax -1.14494 1.87531 5.05994
lowerneck 4.19256 -5.66659 -15.2385
upperneck 3.77981 -7.98292 -0.824422
head 1.11332 -4.1555 2.32851
rclavicle 1.43125e-014 2.22639e-014
rhumerus -21.4892 -49.2707 -51.2996
rradius 49.289
rwrist -51.6022
rhand -39.41 1.79231
rfingers 7.12502
rthumb -12.399 -27.82
lclavicle 1.43125e-014 2.22639e-014
lhumerus -14.5129 31.2461 -13.9277
lradius 69.3253
lwrist 42.4947
lhand -12.9654 17.7993
lfingers 7.12502
lthumb 13.1265 47.3662
rfemur -30.4245 -2.26196 19.3828
rtibia 63.1164
rfoot -25.7234 -7.66523
rtoes -19.8711
lfemur -34.3917 -4.26936 -11.5579
ltibia 63.8876
lfoot -19.5331 -8.63004
ltoes -14.7471
